<?xml version="1.0" encoding="UTF-8"?>
<!--
Copyright (c) 2004-2024 Nexthink
This source code is being shared with Mozilla for security review only - all rights reserved
-->

<svg width="16" height="16" viewBox="0 0 16 16" fill="none" xmlns="http://www.w3.org/2000/svg">
<path fill-rule="evenodd" clip-rule="evenodd" d="M5.471 1C5.20543 1 4.99014 1.22669 4.99014 1.50632C4.99014 1.78596 5.20543 2.01265 5.471 2.01265H6.64181C6.90739 2.01265 7.12267 1.78596 7.12267 1.50632C7.12267 1.22669 6.90739 1 6.64181 1H5.471ZM8.49368 1C8.22811 1 8.01282 1.22669 8.01282 1.50632C8.01282 1.78596 8.22811 2.01265 8.49368 2.01265H9.12828C9.14213 2.01264 9.15574 2.01642 9.16779 2.02361C9.17985 2.0308 9.18994 2.04119 9.19706 2.0537L9.70309 2.94272C9.83961 3.18257 10.1349 3.26048 10.3627 3.11672C10.5905 2.97297 10.6645 2.66199 10.528 2.42214L10.022 1.53312C9.92942 1.37051 9.79844 1.23593 9.64178 1.14249C9.48515 1.04907 9.30809 0.999979 9.12807 1H8.49368ZM2.98519 2.03795C3.00022 2.02213 3.02061 2.01324 3.04186 2.01324H3.70384C3.96942 2.01324 4.1847 1.78655 4.1847 1.50691C4.1847 1.22728 3.96942 1.00059 3.70384 1.00059H3.04186C2.76554 1.00059 2.50054 1.11617 2.30515 1.3219C2.10977 1.52764 2 1.80667 2 2.09762V3.06639C2 3.34602 2.21529 3.57271 2.48086 3.57271C2.74643 3.57271 2.96172 3.34602 2.96172 3.06639V2.09762C2.96172 2.07524 2.97016 2.05378 2.98519 2.03795ZM2.96172 5.80079C2.96172 5.52115 2.74643 5.29446 2.48086 5.29446C2.21529 5.29446 2 5.52115 2 5.80079V7.75013C2 8.02976 2.21529 8.25645 2.48086 8.25645C2.74643 8.25645 2.96172 8.02976 2.96172 7.75013V5.80079ZM2.96172 10.3953C2.96172 10.1157 2.74643 9.88901 2.48086 9.88901C2.21529 9.88901 2 10.1157 2 10.3953V11.3913C2 11.6822 2.10977 11.9613 2.30515 12.167C2.50054 12.3727 2.76554 12.4883 3.04186 12.4883H3.83175C4.09732 12.4883 4.31261 12.2616 4.31261 11.982C4.31261 11.7023 4.09732 11.4757 3.83175 11.4757H3.04186C3.0206 11.4757 3.00022 11.4668 2.98519 11.4509C2.97016 11.4351 2.96172 11.4136 2.96172 11.3913V10.3953ZM11.382 3.94942L6.18571 3.94942C5.86388 3.94967 5.55494 4.08448 5.32745 4.32419C5.09997 4.56391 4.97218 4.88892 4.97218 5.2278V13.7216C4.97218 14.0607 5.1001 14.3858 5.32778 14.6256C5.55534 14.8652 5.86448 14.9998 6.18627 15H12.3971C12.8222 15 13.2299 14.8222 13.5305 14.5057C13.8311 14.1892 14 13.7599 14 13.3123V6.70575C14 6.36616 13.8716 6.04132 13.6443 5.80191L12.2404 4.32305C12.0126 4.0837 11.7038 3.94932 11.382 3.94942ZM12.3971 13.9874H6.18627C6.11934 13.9874 6.05515 13.9594 6.00782 13.9095C5.96049 13.8597 5.9339 13.7921 5.9339 13.7216V5.2278C5.9339 5.15735 5.96046 5.08979 6.00775 5.03997C6.05501 4.99016 6.11911 4.96215 6.18596 4.96206H11.3825C11.4493 4.96203 11.5136 4.99009 11.5609 5.03973L12.9643 6.51796C13.0118 6.56799 13.0383 6.63543 13.0383 6.70575V13.3123C13.0383 13.4913 12.9707 13.663 12.8505 13.7896C12.7303 13.9162 12.5672 13.9874 12.3971 13.9874Z" fill="#272D36"/>
</svg>
