<?xml version="1.0" encoding="UTF-8"?>
<!--
Copyright (c) 2004-2024 Nexthink
This source code is being shared with Mozilla for security review only - all rights reserved
-->

<svg
  xmlns="http://www.w3.org/2000/svg"
  width="16"
  height="16"
  fill="none"
  viewBox="0 0 16 16">
  <path
     d="M 14,5.25758 C 14,5.06818 13.9226,4.87879 13.7832,4.74242 L 12.7303,3.71212 C 12.591,3.57576 12.3974,3.5 12.2039,3.5 12.0103,3.5 11.81677,3.57576 11.67742,3.71212 L 6.59871,8.68939 4.32258,6.45455 C 4.18323,6.31818 3.98968,6.24242 3.79613,6.24242 c -0.19355,0 -0.3871,0.07576 -0.52645,0.21213 L 2.216774,7.48485 C 2.0774193,7.62121 2,7.81061 2,8 2,8.18939 2.0774193,8.37879 2.216774,8.51515 l 2.802576,2.74243 1.05291,1.03032 c 0.13935,0.1363 0.3329,0.2121 0.52645,0.2121 0.19355,0 0.3871,-0.0758 0.52645,-0.2121 L 8.17806,11.25758 13.7832,5.77273 C 13.9226,5.63636 14,5.44697 14,5.25758 Z"
     fill="currentColor" />
</svg>
