<?xml version="1.0" encoding="UTF-8"?>
<!--
Copyright (c) 2004-2024 Nexthink
This source code is being shared with Mozilla for security review only - all rights reserved
-->

<svg width="16" height="16" viewBox="0 0 16 16" fill="none" xmlns="http://www.w3.org/2000/svg">
<g id="Icon / angle / right">
<path id="Vector" d="M6.57045 4.5C6.51546 4.5 6.45361 4.52806 6.41237 4.57014L6.06873 4.92084C6.02749 4.96293 6 5.02605 6 5.08216C6 5.13828 6.02749 5.2014 6.06873 5.24349L8.76976 8L6.06873 10.7565C6.02749 10.7986 6 10.8617 6 10.9178C6 10.981 6.02749 11.0371 6.06873 11.0792L6.41237 11.4299C6.45361 11.4719 6.51546 11.5 6.57045 11.5C6.62543 11.5 6.68729 11.4719 6.72852 11.4299L9.93127 8.16132C9.97251 8.11924 10 8.05611 10 8C10 7.94389 9.97251 7.88076 9.93127 7.83868L6.72852 4.57014C6.68729 4.52806 6.62543 4.5 6.57045 4.5Z" fill="white"/>
</g>
</svg>
